<svg width="68" height="86" viewBox="0 0 68 86" fill="none" xmlns="http://www.w3.org/2000/svg">
<path d="M10.0727 60.434C10.8363 61.227 12.0982 61.2509 12.8912 60.4873C13.6842 59.7237 13.708 58.4618 12.9444 57.6688L11.5086 59.0514L10.0727 60.434ZM32.0559 81.0338L30.6326 82.4293L33.4236 85.2759L34.8469 83.8805L33.4514 82.4571L32.0559 81.0338ZM61.4379 52.0139L59.7128 51.0152L61.4379 52.0139ZM11.5086 59.0514C12.9444 57.6688 12.9449 57.6693 12.9453 57.6697C12.9454 57.6698 12.9458 57.6702 12.946 57.6704C12.9463 57.6708 12.9465 57.671 12.9466 57.6711C12.9468 57.6712 12.9464 57.6708 12.9454 57.6698C12.9435 57.6678 12.9393 57.6634 12.933 57.6567C12.9203 57.6432 12.899 57.6204 12.8697 57.5885C12.811 57.5246 12.7202 57.4242 12.6017 57.2885C12.3648 57.017 12.0179 56.6051 11.5976 56.0636C10.7561 54.9793 9.62587 53.3824 8.49431 51.3586C6.22528 47.3004 3.99356 41.603 3.99331 34.9142L2 34.9143L0.00669277 34.9143C0.00697732 42.4884 2.52954 48.8595 5.01467 53.3042C6.26019 55.5318 7.50698 57.295 8.44822 58.5078C8.91932 59.1148 9.31531 59.5858 9.59831 59.91C9.73986 60.0722 9.85329 60.1978 9.93389 60.2856C9.9742 60.3294 10.0063 60.3639 10.0296 60.3887C10.0413 60.401 10.0508 60.411 10.058 60.4186C10.0616 60.4224 10.0646 60.4256 10.0671 60.4281C10.0683 60.4294 10.0694 60.4306 10.0703 60.4315C10.0708 60.432 10.0714 60.4326 10.0716 60.4329C10.0722 60.4335 10.0727 60.434 11.5086 59.0514ZM2 34.9143L3.99331 34.9142C3.9928 21.388 14.4037 3.99331 33.8171 3.99331V2V0.00669277C11.5381 0.00669384 0.00612938 19.9148 0.00669277 34.9143L2 34.9143ZM33.8171 2V3.99331C53.259 3.99331 64.0067 21.422 64.0067 34.9143H66H67.9933C67.9933 19.8808 56.0678 0.00669169 33.8171 0.00669277V2ZM66 34.9143H64.0067C64.0067 39.5503 62.9941 45.3475 59.7128 51.0152L61.4379 52.0139L63.1629 53.0126C66.8606 46.6257 67.9933 40.1096 67.9933 34.9143H66ZM61.4379 52.0139L59.7128 51.0152C58.822 52.5538 56.7035 55.1832 53.8747 58.3815C51.0892 61.531 47.7385 65.0964 44.5004 68.4584C41.2646 71.8181 38.1525 74.9629 35.8486 77.2686C34.6969 78.4211 33.7479 79.3633 33.0871 80.017C32.7567 80.3438 32.4985 80.5984 32.323 80.7712C32.2353 80.8576 32.1683 80.9234 32.1233 80.9676C32.1009 80.9897 32.0839 81.0064 32.0726 81.0174C32.067 81.023 32.0627 81.0271 32.0599 81.0299C32.0586 81.0312 32.0575 81.0322 32.0569 81.0329C32.0565 81.0332 32.0563 81.0334 32.0561 81.0336C32.056 81.0337 32.0559 81.0338 33.4514 82.4571C34.8469 83.8805 34.847 83.8803 34.8473 83.8801C34.8475 83.8799 34.8478 83.8796 34.8482 83.8792C34.849 83.8784 34.8501 83.8773 34.8516 83.8758C34.8547 83.8729 34.8591 83.8685 34.865 83.8627C34.8768 83.8511 34.8943 83.834 34.9172 83.8114C34.9632 83.7663 35.0312 83.6994 35.12 83.612C35.2976 83.4371 35.5581 83.1802 35.8908 82.8511C36.5563 82.1927 37.5108 81.2451 38.6686 80.0865C40.9836 77.7697 44.1138 74.6066 47.3718 71.224C50.6274 67.8438 54.0219 64.2327 56.8609 61.0226C59.6568 57.8614 62.0423 54.9483 63.1629 53.0126L61.4379 52.0139Z" fill="white"/>
<path d="M35.3429 35.3424H39.6919L32.4435 42.5908H28.0945L35.3429 35.3424Z" fill="white"/>
<path d="M23.7452 23.7453H28.0942L20.8458 30.9937H16.4968L23.7452 23.7453Z" fill="white"/>
<path d="M41.1412 35.3424H45.4902L38.2418 42.5908H33.8928L41.1412 35.3424Z" fill="white"/>
<path d="M46.94 35.3424H51.2891L44.0407 42.5908H39.6916L46.94 35.3424Z" fill="white"/>
<path d="M32.4433 23.7453H28.0942L35.3426 30.9937H39.6917L32.4433 23.7453Z" fill="white"/>
<path d="M20.8456 35.3424H16.4966L23.745 42.5908H28.094L20.8456 35.3424Z" fill="white"/>
<rect x="16.4966" y="30.9937" width="4.34903" height="4.34903" fill="white"/>
</svg>
